<svg width="256" height="192" viewBox="0 0 256 192" fill="none" xmlns="http://www.w3.org/2000/svg">
<rect x="1" y="1" width="254" height="190" rx="11" fill="#FDFDFF"/>
<rect width="256" height="32" fill="#FDFDFF"/>
<rect y="32" width="256" height="2" fill="#E7E8F3"/>
<rect width="256" height="124" transform="translate(0 34)" fill="#F4F4FB"/>
<rect x="41" y="65" width="30" height="46" rx="7" fill="#FDFDFF"/>
<path d="M60.7044 94V96.0526H51.3081V94H60.7044Z" fill="#A6B2C4"/>
<rect x="41" y="65" width="30" height="46" rx="7" stroke="#E7E8F3" stroke-width="2"/>
<path d="M54.659 119.835V120.893H51.3849V119.835H54.659ZM55.743 124V123.048L58.2678 120.573C58.5093 120.329 58.7106 120.113 58.8715 119.923C59.0325 119.734 59.1533 119.55 59.2338 119.373C59.3142 119.195 59.3545 119.006 59.3545 118.805C59.3545 118.575 59.3024 118.379 59.1982 118.215C59.0941 118.049 58.9508 117.922 58.7686 117.832C58.5863 117.742 58.3791 117.697 58.1471 117.697C57.908 117.697 57.6985 117.746 57.5186 117.846C57.3386 117.943 57.199 118.081 57.0995 118.261C57.0025 118.441 56.9539 118.656 56.9539 118.904H55.7004C55.7004 118.442 55.8057 118.041 56.0164 117.7C56.2271 117.359 56.5171 117.095 56.8865 116.908C57.2581 116.721 57.6843 116.628 58.1649 116.628C58.6526 116.628 59.0811 116.719 59.4504 116.901C59.8197 117.084 60.1061 117.333 60.3097 117.651C60.5157 117.968 60.6187 118.33 60.6187 118.737C60.6187 119.009 60.5666 119.277 60.4624 119.54C60.3583 119.803 60.1748 120.094 59.912 120.413C59.6516 120.733 59.2858 121.12 58.8147 121.575L57.5612 122.849V122.899H60.7288V124H55.743Z" fill="#183157"/>
<rect x="77" y="65" width="30" height="46" rx="7" fill="#FDFDFF"/>
<path d="M96.7044 94V96.0526H87.3081V94H96.7044Z" fill="#A6B2C4"/>
<rect x="77" y="65" width="30" height="46" rx="7" stroke="#E7E8F3" stroke-width="2"/>
<path d="M91.2352 119.835V120.893H87.961V119.835H91.2352ZM95.5312 116.727V124H94.2137V118.009H94.1711L92.4701 119.096V117.888L94.2776 116.727H95.5312Z" fill="#183157"/>
<rect x="112" y="64" width="32" height="48" rx="8" fill="#62A092"/>
<rect x="112" y="64" width="32" height="48" rx="8" fill="#72A5B5"/>
<path d="M124.066 95H121.254L126.374 80.4545H129.627L134.755 95H131.943L128.058 83.4375H127.944L124.066 95ZM124.159 89.2969H131.829V91.4134H124.159V89.2969Z" fill="#FDFDFF"/>
<path d="M128 124.138C127.415 124.138 126.913 123.991 126.494 123.695C126.077 123.396 125.756 122.967 125.532 122.406C125.309 121.842 125.198 121.164 125.198 120.371C125.2 119.578 125.313 118.903 125.535 118.347C125.76 117.788 126.081 117.362 126.497 117.068C126.916 116.775 127.417 116.628 128 116.628C128.582 116.628 129.083 116.775 129.502 117.068C129.921 117.362 130.242 117.788 130.464 118.347C130.689 118.905 130.801 119.58 130.801 120.371C130.801 121.166 130.689 121.846 130.464 122.409C130.242 122.97 129.921 123.399 129.502 123.695C129.085 123.991 128.584 124.138 128 124.138ZM128 123.027C128.454 123.027 128.813 122.803 129.076 122.356C129.341 121.906 129.473 121.244 129.473 120.371C129.473 119.793 129.413 119.308 129.292 118.915C129.171 118.522 129.001 118.226 128.781 118.027C128.561 117.826 128.3 117.725 128 117.725C127.547 117.725 127.19 117.95 126.927 118.4C126.664 118.847 126.532 119.504 126.529 120.371C126.527 120.951 126.585 121.438 126.703 121.834C126.824 122.229 126.995 122.527 127.215 122.729C127.435 122.928 127.697 123.027 128 123.027Z" fill="#183157"/>
<rect x="149" y="65" width="30" height="46" rx="7" fill="#FDFDFF"/>
<path d="M168.704 94V96.0526H159.308V94H168.704Z" fill="#A6B2C4"/>
<rect x="149" y="65" width="30" height="46" rx="7" stroke="#E7E8F3" stroke-width="2"/>
<path d="M165.202 116.727V124H163.885V118.009H163.842L162.141 119.096V117.888L163.949 116.727H165.202Z" fill="#183157"/>
<rect x="185" y="65" width="30" height="46" rx="7" fill="#FDFDFF"/>
<path d="M204.704 94V96.0526H195.308V94H204.704Z" fill="#A6B2C4"/>
<rect x="185" y="65" width="30" height="46" rx="7" stroke="#E7E8F3" stroke-width="2"/>
<path d="M197.541 124V123.048L200.066 120.573C200.307 120.329 200.508 120.113 200.669 119.923C200.83 119.734 200.951 119.55 201.032 119.373C201.112 119.195 201.152 119.006 201.152 118.805C201.152 118.575 201.1 118.379 200.996 118.215C200.892 118.049 200.749 117.922 200.566 117.832C200.384 117.742 200.177 117.697 199.945 117.697C199.706 117.697 199.496 117.746 199.316 117.846C199.136 117.943 198.997 118.081 198.897 118.261C198.8 118.441 198.752 118.656 198.752 118.904H197.498C197.498 118.442 197.604 118.041 197.814 117.7C198.025 117.359 198.315 117.095 198.684 116.908C199.056 116.721 199.482 116.628 199.963 116.628C200.45 116.628 200.879 116.719 201.248 116.901C201.618 117.084 201.904 117.333 202.108 117.651C202.314 117.968 202.417 118.33 202.417 118.737C202.417 119.009 202.364 119.277 202.26 119.54C202.156 119.803 201.973 120.094 201.71 120.413C201.449 120.733 201.084 121.12 200.613 121.575L199.359 122.849V122.899H202.527V124H197.541Z" fill="#183157"/>
<rect y="158" width="256" height="2" fill="#E7E8F3"/>
<rect y="160" width="256" height="32" fill="#FDFDFF"/>
<rect x="1" y="1" width="254" height="190" rx="11" stroke="#E7E8F3" stroke-width="2"/>
</svg>
